<svg xmlns="http://www.w3.org/2000/svg" width="52" height="50" viewBox="0 0 52 50">
  <defs>
    <style>
      .cls-1 {
        fill-rule: evenodd;
      }
    </style>
  </defs>
  <g id="arrow-right">
    <path id="left" class="cls-1" d="M2362.74,323.677l-10.86-10.863a1.675,1.675,0,0,0-2.37,2.369l9.69,9.683-9.69,9.682a1.675,1.675,0,0,0,2.37,2.368l10.86-10.859a1.636,1.636,0,0,0,.49-1.191A1.665,1.665,0,0,0,2362.74,323.677Zm-7.75-23.69a25,25,0,1,0,25,25A25,25,0,0,0,2354.99,299.987Zm0,46.651a21.651,21.651,0,1,1,21.65-21.65A21.683,21.683,0,0,1,2354.99,346.638Z" transform="translate(-2329 -300)"/>
  </g>
</svg>
