<svg xmlns="http://www.w3.org/2000/svg" width="52" height="50" viewBox="0 0 52 50">
  <defs>
    <style>
      .cls-1 {
        fill-rule: evenodd;
      }
    </style>
  </defs>
  <g id="bag">
    <path id="icon" class="cls-1" d="M666.108,320.675a6.682,6.682,0,0,1,5.643-3.545h25.756v-1.625a2.435,2.435,0,0,0-2.415-2.438h-10.63v-1.418a3.644,3.644,0,0,0-3.621-3.658h-6.182a3.578,3.578,0,0,0-2.562,1.076,3.63,3.63,0,0,0-1.063,2.582v1.419H660.4a2.432,2.432,0,0,0-2.415,2.437v21.776Zm7.341-9.026a1.228,1.228,0,0,1,.357-0.86,1.179,1.179,0,0,1,.851-0.361h6.182a1.214,1.214,0,0,1,1.208,1.221v1.419h-8.6v-1.419Zm25.014,29.184a4.254,4.254,0,0,1-3.482,2.182H660.29a1.393,1.393,0,0,1-1.346-2.182l9.329-19.082a4.247,4.247,0,0,1,3.478-2.186h34.691a1.4,1.4,0,0,1,1.348,2.186Z" transform="translate(-657 -300)"/>
  </g>
</svg>
