<svg xmlns="http://www.w3.org/2000/svg" width="50" height="50" viewBox="0 0 50 50">
  <defs>
    <style>
      .cls-1 {
        fill-rule: evenodd;
      }
    </style>
  </defs>
  <path id="вект" class="cls-1" d="M37.666,6.252H34.5C34.5,2.8,30.247,0,25,0s-9.5,2.8-9.5,6.252H12.333A6.291,6.291,0,0,0,6,12.5V43.751A6.292,6.292,0,0,0,12.333,50H37.666A6.293,6.293,0,0,0,44,43.751V12.5A6.292,6.292,0,0,0,37.666,6.252ZM25,3.126c3.5,0,6.333.967,6.333,3.126H18.667C18.667,4.093,21.5,3.126,25,3.126ZM40.833,43.751a3.145,3.145,0,0,1-3.167,3.123H12.333a3.145,3.145,0,0,1-3.167-3.123V40.626H40.833v3.125Zm0-6.251H9.166v-25a3.146,3.146,0,0,1,3.167-3.125H15.5v9.377h3.167V9.375H31.333v9.377H34.5V9.375h3.166A3.146,3.146,0,0,1,40.833,12.5v25Z"/>
</svg>
