<svg xmlns="http://www.w3.org/2000/svg" width="52" height="50" viewBox="0 0 52 50">
  <defs>
    <style>
      .cls-1 {
        fill-rule: evenodd;
      }
    </style>
  </defs>
  <g id="chat">
    <path id="icon" class="cls-1" d="M1450.81,326.561h-15.62a1.563,1.563,0,0,0,0,3.125h15.62A1.563,1.563,0,0,0,1450.81,326.561Zm3.12-9.373h-21.87a1.562,1.562,0,0,0,0,3.124h21.87A1.562,1.562,0,1,0,1453.93,317.188ZM1443,300c-13.8,0-25,9.791-25,21.87,0,6.9,3.67,13.05,9.38,17.059v11.061l10.95-6.643a28.678,28.678,0,0,0,4.67.395c13.8,0,24.99-9.792,24.99-21.872S1456.8,300,1443,300Zm0,40.617a25.2,25.2,0,0,1-5.28-.573l-7.36,4.421,0.1-7.246c-5.64-3.391-9.33-9-9.33-15.349,0-10.352,9.79-18.746,21.87-18.746s21.87,8.394,21.87,18.746S1455.08,340.621,1443,340.621Z" transform="translate(-1417 -300)"/>
  </g>
</svg>
