<svg xmlns="http://www.w3.org/2000/svg" width="52" height="50" viewBox="0 0 52 50">
  <defs>
    <style>
      .cls-1 {
        fill-rule: evenodd;
      }
    </style>
  </defs>
  <g id="food">
    <path id="icon" class="cls-1" d="M1771.37,339.765h-48.74a1.615,1.615,0,1,0,0,3.23h48.74A1.615,1.615,0,1,0,1771.37,339.765Zm-22.74-32.3v-3.23h3.25a1.615,1.615,0,1,0,0-3.23h-9.75a1.615,1.615,0,1,0,0,3.23h3.25s-0.02,3.363,0,3.23A25.967,25.967,0,0,0,1721,333.305v1.615a1.623,1.623,0,0,0,1.63,1.615h48.74a1.623,1.623,0,0,0,1.63-1.615v-1.615A25.966,25.966,0,0,0,1748.63,307.463Zm-24.38,25.842a22.75,22.75,0,0,1,45.5,0h-45.5Z" transform="translate(-1721 -300)"/>
  </g>
</svg>
