<svg xmlns="http://www.w3.org/2000/svg" width="52" height="50" viewBox="0 0 52 50">
  <defs>
    <style>
      .cls-1 {
        fill-rule: evenodd;
      }
    </style>
  </defs>
  <g id="glass">
    <path id="lupa" class="cls-1" d="M983.333,307.957a2.649,2.649,0,1,0,0,5.3,8.4,8.4,0,0,1,7.6,4.718,2.665,2.665,0,0,0,2.4,1.488,2.7,2.7,0,0,0,1.167-.267,2.64,2.64,0,0,0,1.229-3.542A13.7,13.7,0,0,0,983.333,307.957Zm28.687,36.373-8.88-8.824a22.259,22.259,0,0,0,4.19-13,22.682,22.682,0,1,0-8.811,17.775l8.791,8.727a3.349,3.349,0,0,0,4.71,0A3.278,3.278,0,0,0,1012.02,344.33Zm-44.693-21.822a17.337,17.337,0,0,1,34.673,0A17.012,17.012,0,0,1,998.376,333a17.308,17.308,0,0,1-13.714,6.726A17.3,17.3,0,0,1,967.327,322.508Z" transform="translate(-961 -300)"/>
  </g>
</svg>
