<svg xmlns="http://www.w3.org/2000/svg" width="52" height="50" viewBox="0 0 52 50">
  <defs>
    <style>
      .cls-1 {
        fill-rule: evenodd;
      }
    </style>
  </defs>
  <g id="heart">
    <path id="icon" class="cls-1" d="M1604.37,300c-0.48,0-.96.03-1.44,0.073-0.17.016-.34,0.041-0.52,0.064q-0.435.054-.87,0.133-0.315.06-.63,0.13c-0.24.055-.47,0.118-0.71,0.184s-0.45.124-.67,0.195-0.4.145-.6,0.219q-0.78.294-1.53,0.663c-0.09.047-.2,0.092-0.29,0.144-0.26.137-.51,0.29-0.76,0.44-0.14.085-.28,0.164-0.42,0.253-0.24.157-.48,0.324-0.71,0.493-0.07.052-.15,0.1-0.22,0.15a15.609,15.609,0,0,0-25,12.484c0,14.142,9.09,26.934,24.32,34.219a1.56,1.56,0,0,0,1.36,0c15.23-7.285,24.32-20.077,24.32-34.219A15.643,15.643,0,0,0,1604.37,300ZM1595,346.7c-13.71-6.806-21.88-18.375-21.88-31.076a12.471,12.471,0,0,1,19.54-10.3,15.517,15.517,0,0,0-3.91,10.3,1.56,1.56,0,1,0,3.12,0,12.461,12.461,0,0,1,4.24-9.349c0.24-.214.49-0.415,0.74-0.609,0.06-.041.11-0.085,0.17-0.128,0.25-.181.51-0.355,0.77-0.516,0.07-.045.14-0.09,0.21-0.133,0.25-.151.51-0.292,0.77-0.423,0.09-.045.19-0.089,0.28-0.133,0.25-.118.5-0.231,0.76-0.333,0.11-.045.23-0.086,0.35-0.128,0.24-.087.48-0.17,0.73-0.242,0.15-.042.3-0.08,0.45-0.116,0.22-.056.44-0.114,0.67-0.159,0.21-.038.42-0.066,0.63-0.095,0.17-.027.35-0.057,0.53-0.075,0.4-.038.8-0.061,1.2-0.061a12.509,12.509,0,0,1,12.5,12.5C1616.87,328.326,1608.71,339.9,1595,346.7Zm9.37-40.451a1.563,1.563,0,0,0,0,3.125,6.254,6.254,0,0,1,6.25,6.25,1.565,1.565,0,0,0,3.13,0A9.388,9.388,0,0,0,1604.37,306.25Z" transform="translate(-1569 -300)"/>
  </g>
</svg>
