<svg xmlns="http://www.w3.org/2000/svg" width="52" height="50" viewBox="0 0 52 50">
  <defs>
    <style>
      .cls-1 {
        fill-rule: evenodd;
      }
    </style>
  </defs>
  <g id="link">
    <path id="link-2" data-name="link" class="cls-1" d="M856.318,303.6a12.588,12.588,0,0,0-17.753,0l-9.586,9.591a14.35,14.35,0,0,1,9.967.764l4.983-4.988a4.969,4.969,0,0,1,7.025,7.03l-6.264,6.268-4.118,4.119a4.967,4.967,0,0,1-7.025,0l-5.364,5.368a12.25,12.25,0,0,0,4.222,2.771,12.671,12.671,0,0,0,12.493-1.836,8.8,8.8,0,0,0,1.038-.935l6.471-6.475,3.911-3.914A12.544,12.544,0,0,0,856.318,303.6Zm-25.5,32.549-4.776,4.78a4.97,4.97,0,1,1-7.025-7.031l10.382-10.385a4.967,4.967,0,0,1,7.025,0l5.364-5.369a12.207,12.207,0,0,0-4.221-2.769,12.573,12.573,0,0,0-13.048,2.318,6.306,6.306,0,0,0-.484.451l-10.382,10.39A12.556,12.556,0,0,0,831.4,346.3l9.379-9.487C836,337.92,834.9,337.783,830.813,336.153Z" transform="translate(-809 -300)"/>
  </g>
</svg>
