<svg xmlns="http://www.w3.org/2000/svg" width="52" height="50" viewBox="0 0 52 50">
  <defs>
    <style>
      .cls-1 {
        fill-rule: evenodd;
      }
    </style>
  </defs>
  <g id="pencil">
    <path id="icon" class="cls-1" d="M251.52,317.434a1.667,1.667,0,0,0-2.362,0l-14.546,14.544-20.452,9.006-3.151-3.15,9.01-20.45,14.544-14.547a1.67,1.67,0,1,0-2.362-2.362L217.212,315.46,202,349.994l34.529-15.21L251.52,319.8A1.669,1.669,0,0,0,251.52,317.434Zm-21.193,11.552a1.673,1.673,0,0,0,2.364,0l14-14.006a1.671,1.671,0,1,0-2.363-2.363l-14.006,14.006A1.674,1.674,0,0,0,230.327,328.986Zm-3.656-3.657a1.675,1.675,0,0,0,2.364,0l14.007-14.007a1.671,1.671,0,1,0-2.364-2.363l-14.007,14.006A1.671,1.671,0,0,0,226.671,325.329Zm-3.657-3.659a1.671,1.671,0,0,0,2.364,0l14.006-14a1.671,1.671,0,0,0-2.363-2.363l-14.007,14A1.672,1.672,0,0,0,223.014,321.67Z" transform="translate(-201 -300)"/>
  </g>
</svg>
