<svg xmlns="http://www.w3.org/2000/svg" width="52" height="50" viewBox="0 0 52 50">
  <defs>
    <style>
      .cls-1 {
        fill-rule: evenodd;
      }
    </style>
  </defs>
  <g id="people">
    <path id="icon" class="cls-1" d="M1896.66,334.375c6.46,0,11.71-6.4,11.71-14.258s-5.25-14.258-11.71-14.258a10.739,10.739,0,0,0-8.41,4.305,15.922,15.922,0,0,0-3.31,9.953C1884.94,327.98,1890.19,334.375,1896.66,334.375Zm0-25.391c4.73,0,8.59,4.994,8.59,11.133s-3.86,11.133-8.59,11.133-8.6-4.993-8.6-11.133S1891.92,308.984,1896.66,308.984Zm9.84,23.828a1.563,1.563,0,0,0,0,3.125,9.7,9.7,0,0,1,9.69,9.691,1.251,1.251,0,0,1-1.25,1.247h-36.57a1.256,1.256,0,0,1-1.25-1.247,9.7,9.7,0,0,1,9.69-9.691,1.563,1.563,0,0,0,0-3.125A12.83,12.83,0,0,0,1874,345.628a4.376,4.376,0,0,0,4.37,4.372h36.57a4.376,4.376,0,0,0,4.37-4.372A12.83,12.83,0,0,0,1906.5,332.812Zm-8.7-28.688a6.865,6.865,0,0,1,3.54-1c4.74,0,8.6,4.994,8.6,11.132a13.668,13.668,0,0,1-.37,3.214,1.571,1.571,0,0,0,1.17,1.877,1.475,1.475,0,0,0,.36.042,1.564,1.564,0,0,0,1.52-1.205,17.629,17.629,0,0,0,.44-3.928c0-7.862-5.25-14.258-11.72-14.258a10.085,10.085,0,0,0-5.13,1.433A1.563,1.563,0,0,0,1897.8,304.124Zm13.7,22.438a1.563,1.563,0,0,0,0,3.125,9.534,9.534,0,0,1,9.38,9.793,1.263,1.263,0,0,1-.11.51,1.56,1.56,0,0,0,.79,2.063,1.581,1.581,0,0,0,.64.134,1.554,1.554,0,0,0,1.42-.928,4.347,4.347,0,0,0,.38-1.782A12.658,12.658,0,0,0,1911.5,326.562Z" transform="translate(-1873 -300)"/>
  </g>
</svg>
