<svg xmlns="http://www.w3.org/2000/svg" width="52" height="50" viewBox="0 0 52 50">
  <defs>
    <style>
      .cls-1 {
        fill-rule: evenodd;
      }
    </style>
  </defs>
  <g id="search">
    <path id="icon-search" class="cls-1" d="M99.5,347.253l-12.9-12.7a20.413,20.413,0,0,0,5.455-13.871,21.03,21.03,0,1,0-21.028,20.7,21.156,21.156,0,0,0,13.234-4.622l12.953,12.749a1.637,1.637,0,0,0,2.287,0A1.578,1.578,0,0,0,99.5,347.253ZM71.028,338.2a17.511,17.511,0,1,1,17.791-17.511A17.652,17.652,0,0,1,71.028,338.2Z" transform="translate(-49 -300)"/>
  </g>
</svg>
