<svg xmlns="http://www.w3.org/2000/svg" width="52" height="50" viewBox="0 0 52 50">
  <defs>
    <style>
      .cls-1 {
        fill-rule: evenodd;
      }
    </style>
  </defs>
  <g id="settings">
    <path id="icon" class="cls-1" d="M555.988,325.007A4.957,4.957,0,0,0,553,320.58a5.317,5.317,0,0,1-3.312-8.007,4.777,4.777,0,0,0-6.267-6.266,5.31,5.31,0,0,1-8-3.311,4.78,4.78,0,0,0-8.865,0,5.311,5.311,0,0,1-8,3.311,4.776,4.776,0,0,0-6.266,6.266,5.322,5.322,0,0,1-3.311,8.007,4.775,4.775,0,0,0,0,8.858,5.317,5.317,0,0,1,3.311,8,4.777,4.777,0,0,0,6.266,6.266,5.316,5.316,0,0,1,8,3.317,4.783,4.783,0,0,0,8.865,0,5.309,5.309,0,0,1,8-3.317,4.778,4.778,0,0,0,6.267-6.266,5.311,5.311,0,0,1,3.312-8A4.967,4.967,0,0,0,555.988,325.007Zm-25,9.173a9.169,9.169,0,1,1,9.164-9.163A9.163,9.163,0,0,1,530.986,334.18Z" transform="translate(-505 -300)"/>
  </g>
</svg>
