<svg xmlns="http://www.w3.org/2000/svg" width="52" height="50" viewBox="0 0 52 50">
  <defs>
    <style>
      .cls-1 {
        fill-rule: evenodd;
      }
    </style>
  </defs>
  <g id="video">
    <path id="icon-play" class="cls-1" d="M1135.37,337.008a1.524,1.524,0,0,1-.63-0.138,1.48,1.48,0,0,1-.84-1.333v-21.1a1.467,1.467,0,0,1,2.41-1.131l12.66,10.549a1.472,1.472,0,0,1,0,2.262l-12.66,10.549A1.46,1.46,0,0,1,1135.37,337.008Zm1.47-19.428v14.814l8.89-7.407Zm2.1,32.419a24.87,24.87,0,0,1-12.22-3.2,1.471,1.471,0,0,1,1.44-2.565,22.1,22.1,0,1,0-4.79-3.639,1.471,1.471,0,0,1-2.08,2.082A25.055,25.055,0,1,1,1138.94,350Z" transform="translate(-1113 -300)"/>
  </g>
</svg>
